<svg width="22" height="20" viewBox="0 0 22 20" fill="none" xmlns="http://www.w3.org/2000/svg">
<path fill-rule="evenodd" clip-rule="evenodd" d="M4.624 2.42407C2.965 3.18207 1.75 4.98607 1.75 7.13707C1.75 9.33407 2.65 11.0281 3.938 12.4801C5.001 13.6761 6.287 14.6681 7.541 15.6341C7.839 15.8641 8.135 16.0931 8.426 16.3221C8.952 16.7371 9.421 17.1001 9.874 17.3651C10.326 17.6291 10.69 17.7501 11 17.7501C11.31 17.7501 11.674 17.6301 12.126 17.3651C12.579 17.1001 13.048 16.7371 13.574 16.3221C13.864 16.0921 14.161 15.8641 14.459 15.6341C15.713 14.6681 16.999 13.6761 18.062 12.4801C19.351 11.0281 20.25 9.33407 20.25 7.13707C20.25 4.98707 19.035 3.18207 17.376 2.42407C15.764 1.68707 13.598 1.88207 11.54 4.02107C11.47 4.09366 11.3862 4.15139 11.2934 4.19083C11.2006 4.23026 11.1008 4.25059 11 4.25059C10.8992 4.25059 10.7994 4.23026 10.7066 4.19083C10.6138 4.15139 10.53 4.09366 10.46 4.02107C8.402 1.88207 6.236 1.68707 4.624 2.42407ZM11 2.46007C8.688 0.390069 6.099 0.100069 4 1.05907C1.786 2.07407 0.25 4.42607 0.25 7.13807C0.25 9.80307 1.36 11.8371 2.817 13.4771C3.983 14.7901 5.41 15.8891 6.671 16.8591C6.957 17.0791 7.234 17.2931 7.497 17.5011C8.01 17.9051 8.56 18.3351 9.117 18.6611C9.674 18.9861 10.31 19.2511 11 19.2511C11.69 19.2511 12.326 18.9861 12.883 18.6611C13.441 18.3351 13.99 17.9051 14.503 17.5011C14.7769 17.2852 15.0522 17.0712 15.329 16.8591C16.589 15.8891 18.017 14.7891 19.183 13.4771C20.64 11.8371 21.75 9.80307 21.75 7.13807C21.75 4.42607 20.215 2.07407 18 1.06107C15.901 0.101069 13.312 0.391069 11 2.46007Z" fill="#2B2B2B"/>
</svg>
